<?xml version="1.0" encoding="UTF-8"?>
<svg width="512" height="512" viewBox="0 0 512 512" fill="none" xmlns="http://www.w3.org/2000/svg">
  <!-- Círculo de fundo -->
  <circle cx="256" cy="256" r="240" fill="#E0F7F5"/>
  
  <!-- Globo -->
  <path d="M256 16C123.45 16 16 123.45 16 256s107.45 240 240 240 240-107.45 240-240S388.55 16 256 16zm0 448c-114.69 0-208-93.31-208-208S141.31 48 256 48s208 93.31 208 208-93.31 208-208 208z" fill="#00BFA5"/>
  
  <!-- Meridianos -->
  <path d="M256 16v480M16 256h480" stroke="#00BFA5" stroke-width="16" stroke-linecap="round"/>
  
  <!-- Paralelos -->
  <path d="M16 128h480M16 384h480" stroke="#00BFA5" stroke-width="16" stroke-linecap="round"/>
  
  <!-- Continentes estilizados -->
  <path d="M96 192c0-35.35 28.65-64 64-64s64 28.65 64 64-28.65 64-64 64-64-28.65-64-64z" fill="#00897B"/>
  <path d="M288 320c0-35.35 28.65-64 64-64s64 28.65 64 64-28.65 64-64 64-64-28.65-64-64z" fill="#00897B"/>
  <path d="M192 256c0-35.35 28.65-64 64-64s64 28.65 64 64-28.65 64-64 64-64-28.65-64-64z" fill="#00897B"/>
</svg> 